<?xml version="1.0" encoding="utf-8" standalone="no"?>
<!DOCTYPE svg PUBLIC "-//W3C//DTD SVG 1.1//EN"
  "http://www.w3.org/Graphics/SVG/1.1/DTD/svg11.dtd">
<svg xmlns:xlink="http://www.w3.org/1999/xlink" width="460.8pt" height="345.6pt" viewBox="0 0 460.8 345.6" xmlns="http://www.w3.org/2000/svg" version="1.1">
 <metadata>
  <rdf:RDF xmlns:dc="http://purl.org/dc/elements/1.1/" xmlns:cc="http://creativecommons.org/ns#" xmlns:rdf="http://www.w3.org/1999/02/22-rdf-syntax-ns#">
   <cc:Work>
    <dc:type rdf:resource="http://purl.org/dc/dcmitype/StillImage"/>
    <dc:date>2023-10-19T17:09:48.133141</dc:date>
    <dc:format>image/svg+xml</dc:format>
    <dc:creator>
     <cc:Agent>
      <dc:title>Matplotlib v3.7.3, https://matplotlib.org/</dc:title>
     </cc:Agent>
    </dc:creator>
   </cc:Work>
  </rdf:RDF>
 </metadata>
 <defs>
  <style type="text/css">*{stroke-linejoin: round; stroke-linecap: butt}</style>
 </defs>
 <g id="figure_1">
  <g id="patch_1">
   <path d="M 0 345.6 
L 460.8 345.6 
L 460.8 0 
L 0 0 
z
" style="fill: #ffffff"/>
  </g>
  <g id="axes_1">
   <g id="patch_2">
    <path d="M 57.6 307.584 
L 414.72 307.584 
L 414.72 41.472 
L 57.6 41.472 
z
" style="fill: #ffffff"/>
   </g>
   <g id="matplotlib.axis_1">
    <g id="xtick_1">
     <g id="line2d_1">
      <defs>
       <path id="m90bf1971d3" d="M 0 0 
L 0 3.5 
" style="stroke: #000000; stroke-width: 0.8"/>
      </defs>
      <g>
       <use xlink:href="#m90bf1971d3" x="73.832727" y="307.584" style="stroke: #000000; stroke-width: 0.8"/>
      </g>
     </g>
     <g id="text_1">
      <!-- 0 -->
      <g transform="translate(70.651477 322.182437) scale(0.1 -0.1)">
       <defs>
        <path id="DejaVuSans-30" d="M 2034 4250 
Q 1547 4250 1301 3770 
Q 1056 3291 1056 2328 
Q 1056 1369 1301 889 
Q 1547 409 2034 409 
Q 2525 409 2770 889 
Q 3016 1369 3016 2328 
Q 3016 3291 2770 3770 
Q 2525 4250 2034 4250 
z
M 2034 4750 
Q 2819 4750 3233 4129 
Q 3647 3509 3647 2328 
Q 3647 1150 3233 529 
Q 2819 -91 2034 -91 
Q 1250 -91 836 529 
Q 422 1150 422 2328 
Q 422 3509 836 4129 
Q 1250 4750 2034 4750 
z
" transform="scale(0.015625)"/>
       </defs>
       <use xlink:href="#DejaVuSans-30"/>
      </g>
     </g>
    </g>
    <g id="xtick_2">
     <g id="line2d_2">
      <g>
       <use xlink:href="#m90bf1971d3" x="121.583065" y="307.584" style="stroke: #000000; stroke-width: 0.8"/>
      </g>
     </g>
     <g id="text_2">
      <!-- 1000 -->
      <g transform="translate(108.858065 322.182437) scale(0.1 -0.1)">
       <defs>
        <path id="DejaVuSans-31" d="M 794 531 
L 1825 531 
L 1825 4091 
L 703 3866 
L 703 4441 
L 1819 4666 
L 2450 4666 
L 2450 531 
L 3481 531 
L 3481 0 
L 794 0 
L 794 531 
z
" transform="scale(0.015625)"/>
       </defs>
       <use xlink:href="#DejaVuSans-31"/>
       <use xlink:href="#DejaVuSans-30" x="63.623047"/>
       <use xlink:href="#DejaVuSans-30" x="127.246094"/>
       <use xlink:href="#DejaVuSans-30" x="190.869141"/>
      </g>
     </g>
    </g>
    <g id="xtick_3">
     <g id="line2d_3">
      <g>
       <use xlink:href="#m90bf1971d3" x="169.333403" y="307.584" style="stroke: #000000; stroke-width: 0.8"/>
      </g>
     </g>
     <g id="text_3">
      <!-- 2000 -->
      <g transform="translate(156.608403 322.182437) scale(0.1 -0.1)">
       <defs>
        <path id="DejaVuSans-32" d="M 1228 531 
L 3431 531 
L 3431 0 
L 469 0 
L 469 531 
Q 828 903 1448 1529 
Q 2069 2156 2228 2338 
Q 2531 2678 2651 2914 
Q 2772 3150 2772 3378 
Q 2772 3750 2511 3984 
Q 2250 4219 1831 4219 
Q 1534 4219 1204 4116 
Q 875 4013 500 3803 
L 500 4441 
Q 881 4594 1212 4672 
Q 1544 4750 1819 4750 
Q 2544 4750 2975 4387 
Q 3406 4025 3406 3419 
Q 3406 3131 3298 2873 
Q 3191 2616 2906 2266 
Q 2828 2175 2409 1742 
Q 1991 1309 1228 531 
z
" transform="scale(0.015625)"/>
       </defs>
       <use xlink:href="#DejaVuSans-32"/>
       <use xlink:href="#DejaVuSans-30" x="63.623047"/>
       <use xlink:href="#DejaVuSans-30" x="127.246094"/>
       <use xlink:href="#DejaVuSans-30" x="190.869141"/>
      </g>
     </g>
    </g>
    <g id="xtick_4">
     <g id="line2d_4">
      <g>
       <use xlink:href="#m90bf1971d3" x="217.08374" y="307.584" style="stroke: #000000; stroke-width: 0.8"/>
      </g>
     </g>
     <g id="text_4">
      <!-- 3000 -->
      <g transform="translate(204.35874 322.182437) scale(0.1 -0.1)">
       <defs>
        <path id="DejaVuSans-33" d="M 2597 2516 
Q 3050 2419 3304 2112 
Q 3559 1806 3559 1356 
Q 3559 666 3084 287 
Q 2609 -91 1734 -91 
Q 1441 -91 1130 -33 
Q 819 25 488 141 
L 488 750 
Q 750 597 1062 519 
Q 1375 441 1716 441 
Q 2309 441 2620 675 
Q 2931 909 2931 1356 
Q 2931 1769 2642 2001 
Q 2353 2234 1838 2234 
L 1294 2234 
L 1294 2753 
L 1863 2753 
Q 2328 2753 2575 2939 
Q 2822 3125 2822 3475 
Q 2822 3834 2567 4026 
Q 2313 4219 1838 4219 
Q 1578 4219 1281 4162 
Q 984 4106 628 3988 
L 628 4550 
Q 988 4650 1302 4700 
Q 1616 4750 1894 4750 
Q 2613 4750 3031 4423 
Q 3450 4097 3450 3541 
Q 3450 3153 3228 2886 
Q 3006 2619 2597 2516 
z
" transform="scale(0.015625)"/>
       </defs>
       <use xlink:href="#DejaVuSans-33"/>
       <use xlink:href="#DejaVuSans-30" x="63.623047"/>
       <use xlink:href="#DejaVuSans-30" x="127.246094"/>
       <use xlink:href="#DejaVuSans-30" x="190.869141"/>
      </g>
     </g>
    </g>
    <g id="xtick_5">
     <g id="line2d_5">
      <g>
       <use xlink:href="#m90bf1971d3" x="264.834078" y="307.584" style="stroke: #000000; stroke-width: 0.8"/>
      </g>
     </g>
     <g id="text_5">
      <!-- 4000 -->
      <g transform="translate(252.109078 322.182437) scale(0.1 -0.1)">
       <defs>
        <path id="DejaVuSans-34" d="M 2419 4116 
L 825 1625 
L 2419 1625 
L 2419 4116 
z
M 2253 4666 
L 3047 4666 
L 3047 1625 
L 3713 1625 
L 3713 1100 
L 3047 1100 
L 3047 0 
L 2419 0 
L 2419 1100 
L 313 1100 
L 313 1709 
L 2253 4666 
z
" transform="scale(0.015625)"/>
       </defs>
       <use xlink:href="#DejaVuSans-34"/>
       <use xlink:href="#DejaVuSans-30" x="63.623047"/>
       <use xlink:href="#DejaVuSans-30" x="127.246094"/>
       <use xlink:href="#DejaVuSans-30" x="190.869141"/>
      </g>
     </g>
    </g>
    <g id="xtick_6">
     <g id="line2d_6">
      <g>
       <use xlink:href="#m90bf1971d3" x="312.584415" y="307.584" style="stroke: #000000; stroke-width: 0.8"/>
      </g>
     </g>
     <g id="text_6">
      <!-- 5000 -->
      <g transform="translate(299.859415 322.182437) scale(0.1 -0.1)">
       <defs>
        <path id="DejaVuSans-35" d="M 691 4666 
L 3169 4666 
L 3169 4134 
L 1269 4134 
L 1269 2991 
Q 1406 3038 1543 3061 
Q 1681 3084 1819 3084 
Q 2600 3084 3056 2656 
Q 3513 2228 3513 1497 
Q 3513 744 3044 326 
Q 2575 -91 1722 -91 
Q 1428 -91 1123 -41 
Q 819 9 494 109 
L 494 744 
Q 775 591 1075 516 
Q 1375 441 1709 441 
Q 2250 441 2565 725 
Q 2881 1009 2881 1497 
Q 2881 1984 2565 2268 
Q 2250 2553 1709 2553 
Q 1456 2553 1204 2497 
Q 953 2441 691 2322 
L 691 4666 
z
" transform="scale(0.015625)"/>
       </defs>
       <use xlink:href="#DejaVuSans-35"/>
       <use xlink:href="#DejaVuSans-30" x="63.623047"/>
       <use xlink:href="#DejaVuSans-30" x="127.246094"/>
       <use xlink:href="#DejaVuSans-30" x="190.869141"/>
      </g>
     </g>
    </g>
    <g id="xtick_7">
     <g id="line2d_7">
      <g>
       <use xlink:href="#m90bf1971d3" x="360.334753" y="307.584" style="stroke: #000000; stroke-width: 0.8"/>
      </g>
     </g>
     <g id="text_7">
      <!-- 6000 -->
      <g transform="translate(347.609753 322.182437) scale(0.1 -0.1)">
       <defs>
        <path id="DejaVuSans-36" d="M 2113 2584 
Q 1688 2584 1439 2293 
Q 1191 2003 1191 1497 
Q 1191 994 1439 701 
Q 1688 409 2113 409 
Q 2538 409 2786 701 
Q 3034 994 3034 1497 
Q 3034 2003 2786 2293 
Q 2538 2584 2113 2584 
z
M 3366 4563 
L 3366 3988 
Q 3128 4100 2886 4159 
Q 2644 4219 2406 4219 
Q 1781 4219 1451 3797 
Q 1122 3375 1075 2522 
Q 1259 2794 1537 2939 
Q 1816 3084 2150 3084 
Q 2853 3084 3261 2657 
Q 3669 2231 3669 1497 
Q 3669 778 3244 343 
Q 2819 -91 2113 -91 
Q 1303 -91 875 529 
Q 447 1150 447 2328 
Q 447 3434 972 4092 
Q 1497 4750 2381 4750 
Q 2619 4750 2861 4703 
Q 3103 4656 3366 4563 
z
" transform="scale(0.015625)"/>
       </defs>
       <use xlink:href="#DejaVuSans-36"/>
       <use xlink:href="#DejaVuSans-30" x="63.623047"/>
       <use xlink:href="#DejaVuSans-30" x="127.246094"/>
       <use xlink:href="#DejaVuSans-30" x="190.869141"/>
      </g>
     </g>
    </g>
    <g id="xtick_8">
     <g id="line2d_8">
      <g>
       <use xlink:href="#m90bf1971d3" x="408.085091" y="307.584" style="stroke: #000000; stroke-width: 0.8"/>
      </g>
     </g>
     <g id="text_8">
      <!-- 7000 -->
      <g transform="translate(395.360091 322.182437) scale(0.1 -0.1)">
       <defs>
        <path id="DejaVuSans-37" d="M 525 4666 
L 3525 4666 
L 3525 4397 
L 1831 0 
L 1172 0 
L 2766 4134 
L 525 4134 
L 525 4666 
z
" transform="scale(0.015625)"/>
       </defs>
       <use xlink:href="#DejaVuSans-37"/>
       <use xlink:href="#DejaVuSans-30" x="63.623047"/>
       <use xlink:href="#DejaVuSans-30" x="127.246094"/>
       <use xlink:href="#DejaVuSans-30" x="190.869141"/>
      </g>
     </g>
    </g>
    <g id="text_9">
     <!-- training steps -->
     <g transform="translate(201.781094 335.860562) scale(0.1 -0.1)">
      <defs>
       <path id="DejaVuSans-74" d="M 1172 4494 
L 1172 3500 
L 2356 3500 
L 2356 3053 
L 1172 3053 
L 1172 1153 
Q 1172 725 1289 603 
Q 1406 481 1766 481 
L 2356 481 
L 2356 0 
L 1766 0 
Q 1100 0 847 248 
Q 594 497 594 1153 
L 594 3053 
L 172 3053 
L 172 3500 
L 594 3500 
L 594 4494 
L 1172 4494 
z
" transform="scale(0.015625)"/>
       <path id="DejaVuSans-72" d="M 2631 2963 
Q 2534 3019 2420 3045 
Q 2306 3072 2169 3072 
Q 1681 3072 1420 2755 
Q 1159 2438 1159 1844 
L 1159 0 
L 581 0 
L 581 3500 
L 1159 3500 
L 1159 2956 
Q 1341 3275 1631 3429 
Q 1922 3584 2338 3584 
Q 2397 3584 2469 3576 
Q 2541 3569 2628 3553 
L 2631 2963 
z
" transform="scale(0.015625)"/>
       <path id="DejaVuSans-61" d="M 2194 1759 
Q 1497 1759 1228 1600 
Q 959 1441 959 1056 
Q 959 750 1161 570 
Q 1363 391 1709 391 
Q 2188 391 2477 730 
Q 2766 1069 2766 1631 
L 2766 1759 
L 2194 1759 
z
M 3341 1997 
L 3341 0 
L 2766 0 
L 2766 531 
Q 2569 213 2275 61 
Q 1981 -91 1556 -91 
Q 1019 -91 701 211 
Q 384 513 384 1019 
Q 384 1609 779 1909 
Q 1175 2209 1959 2209 
L 2766 2209 
L 2766 2266 
Q 2766 2663 2505 2880 
Q 2244 3097 1772 3097 
Q 1472 3097 1187 3025 
Q 903 2953 641 2809 
L 641 3341 
Q 956 3463 1253 3523 
Q 1550 3584 1831 3584 
Q 2591 3584 2966 3190 
Q 3341 2797 3341 1997 
z
" transform="scale(0.015625)"/>
       <path id="DejaVuSans-69" d="M 603 3500 
L 1178 3500 
L 1178 0 
L 603 0 
L 603 3500 
z
M 603 4863 
L 1178 4863 
L 1178 4134 
L 603 4134 
L 603 4863 
z
" transform="scale(0.015625)"/>
       <path id="DejaVuSans-6e" d="M 3513 2113 
L 3513 0 
L 2938 0 
L 2938 2094 
Q 2938 2591 2744 2837 
Q 2550 3084 2163 3084 
Q 1697 3084 1428 2787 
Q 1159 2491 1159 1978 
L 1159 0 
L 581 0 
L 581 3500 
L 1159 3500 
L 1159 2956 
Q 1366 3272 1645 3428 
Q 1925 3584 2291 3584 
Q 2894 3584 3203 3211 
Q 3513 2838 3513 2113 
z
" transform="scale(0.015625)"/>
       <path id="DejaVuSans-67" d="M 2906 1791 
Q 2906 2416 2648 2759 
Q 2391 3103 1925 3103 
Q 1463 3103 1205 2759 
Q 947 2416 947 1791 
Q 947 1169 1205 825 
Q 1463 481 1925 481 
Q 2391 481 2648 825 
Q 2906 1169 2906 1791 
z
M 3481 434 
Q 3481 -459 3084 -895 
Q 2688 -1331 1869 -1331 
Q 1566 -1331 1297 -1286 
Q 1028 -1241 775 -1147 
L 775 -588 
Q 1028 -725 1275 -790 
Q 1522 -856 1778 -856 
Q 2344 -856 2625 -561 
Q 2906 -266 2906 331 
L 2906 616 
Q 2728 306 2450 153 
Q 2172 0 1784 0 
Q 1141 0 747 490 
Q 353 981 353 1791 
Q 353 2603 747 3093 
Q 1141 3584 1784 3584 
Q 2172 3584 2450 3431 
Q 2728 3278 2906 2969 
L 2906 3500 
L 3481 3500 
L 3481 434 
z
" transform="scale(0.015625)"/>
       <path id="DejaVuSans-20" transform="scale(0.015625)"/>
       <path id="DejaVuSans-73" d="M 2834 3397 
L 2834 2853 
Q 2591 2978 2328 3040 
Q 2066 3103 1784 3103 
Q 1356 3103 1142 2972 
Q 928 2841 928 2578 
Q 928 2378 1081 2264 
Q 1234 2150 1697 2047 
L 1894 2003 
Q 2506 1872 2764 1633 
Q 3022 1394 3022 966 
Q 3022 478 2636 193 
Q 2250 -91 1575 -91 
Q 1294 -91 989 -36 
Q 684 19 347 128 
L 347 722 
Q 666 556 975 473 
Q 1284 391 1588 391 
Q 1994 391 2212 530 
Q 2431 669 2431 922 
Q 2431 1156 2273 1281 
Q 2116 1406 1581 1522 
L 1381 1569 
Q 847 1681 609 1914 
Q 372 2147 372 2553 
Q 372 3047 722 3315 
Q 1072 3584 1716 3584 
Q 2034 3584 2315 3537 
Q 2597 3491 2834 3397 
z
" transform="scale(0.015625)"/>
       <path id="DejaVuSans-65" d="M 3597 1894 
L 3597 1613 
L 953 1613 
Q 991 1019 1311 708 
Q 1631 397 2203 397 
Q 2534 397 2845 478 
Q 3156 559 3463 722 
L 3463 178 
Q 3153 47 2828 -22 
Q 2503 -91 2169 -91 
Q 1331 -91 842 396 
Q 353 884 353 1716 
Q 353 2575 817 3079 
Q 1281 3584 2069 3584 
Q 2775 3584 3186 3129 
Q 3597 2675 3597 1894 
z
M 3022 2063 
Q 3016 2534 2758 2815 
Q 2500 3097 2075 3097 
Q 1594 3097 1305 2825 
Q 1016 2553 972 2059 
L 3022 2063 
z
" transform="scale(0.015625)"/>
       <path id="DejaVuSans-70" d="M 1159 525 
L 1159 -1331 
L 581 -1331 
L 581 3500 
L 1159 3500 
L 1159 2969 
Q 1341 3281 1617 3432 
Q 1894 3584 2278 3584 
Q 2916 3584 3314 3078 
Q 3713 2572 3713 1747 
Q 3713 922 3314 415 
Q 2916 -91 2278 -91 
Q 1894 -91 1617 61 
Q 1341 213 1159 525 
z
M 3116 1747 
Q 3116 2381 2855 2742 
Q 2594 3103 2138 3103 
Q 1681 3103 1420 2742 
Q 1159 2381 1159 1747 
Q 1159 1113 1420 752 
Q 1681 391 2138 391 
Q 2594 391 2855 752 
Q 3116 1113 3116 1747 
z
" transform="scale(0.015625)"/>
      </defs>
      <use xlink:href="#DejaVuSans-74"/>
      <use xlink:href="#DejaVuSans-72" x="39.208984"/>
      <use xlink:href="#DejaVuSans-61" x="80.322266"/>
      <use xlink:href="#DejaVuSans-69" x="141.601562"/>
      <use xlink:href="#DejaVuSans-6e" x="169.384766"/>
      <use xlink:href="#DejaVuSans-69" x="232.763672"/>
      <use xlink:href="#DejaVuSans-6e" x="260.546875"/>
      <use xlink:href="#DejaVuSans-67" x="323.925781"/>
      <use xlink:href="#DejaVuSans-20" x="387.402344"/>
      <use xlink:href="#DejaVuSans-73" x="419.189453"/>
      <use xlink:href="#DejaVuSans-74" x="471.289062"/>
      <use xlink:href="#DejaVuSans-65" x="510.498047"/>
      <use xlink:href="#DejaVuSans-70" x="572.021484"/>
      <use xlink:href="#DejaVuSans-73" x="635.498047"/>
     </g>
    </g>
   </g>
   <g id="matplotlib.axis_2">
    <g id="ytick_1">
     <g id="line2d_9">
      <defs>
       <path id="me0894b7879" d="M 0 0 
L -3.5 0 
" style="stroke: #000000; stroke-width: 0.8"/>
      </defs>
      <g>
       <use xlink:href="#me0894b7879" x="57.6" y="295.488002" style="stroke: #000000; stroke-width: 0.8"/>
      </g>
     </g>
     <g id="text_10">
      <!-- 0 -->
      <g transform="translate(44.2375 299.287221) scale(0.1 -0.1)">
       <use xlink:href="#DejaVuSans-30"/>
      </g>
     </g>
    </g>
    <g id="ytick_2">
     <g id="line2d_10">
      <g>
       <use xlink:href="#me0894b7879" x="57.6" y="259.234207" style="stroke: #000000; stroke-width: 0.8"/>
      </g>
     </g>
     <g id="text_11">
      <!-- 200 -->
      <g transform="translate(31.5125 263.033426) scale(0.1 -0.1)">
       <use xlink:href="#DejaVuSans-32"/>
       <use xlink:href="#DejaVuSans-30" x="63.623047"/>
       <use xlink:href="#DejaVuSans-30" x="127.246094"/>
      </g>
     </g>
    </g>
    <g id="ytick_3">
     <g id="line2d_11">
      <g>
       <use xlink:href="#me0894b7879" x="57.6" y="222.980411" style="stroke: #000000; stroke-width: 0.8"/>
      </g>
     </g>
     <g id="text_12">
      <!-- 400 -->
      <g transform="translate(31.5125 226.77963) scale(0.1 -0.1)">
       <use xlink:href="#DejaVuSans-34"/>
       <use xlink:href="#DejaVuSans-30" x="63.623047"/>
       <use xlink:href="#DejaVuSans-30" x="127.246094"/>
      </g>
     </g>
    </g>
    <g id="ytick_4">
     <g id="line2d_12">
      <g>
       <use xlink:href="#me0894b7879" x="57.6" y="186.726616" style="stroke: #000000; stroke-width: 0.8"/>
      </g>
     </g>
     <g id="text_13">
      <!-- 600 -->
      <g transform="translate(31.5125 190.525834) scale(0.1 -0.1)">
       <use xlink:href="#DejaVuSans-36"/>
       <use xlink:href="#DejaVuSans-30" x="63.623047"/>
       <use xlink:href="#DejaVuSans-30" x="127.246094"/>
      </g>
     </g>
    </g>
    <g id="ytick_5">
     <g id="line2d_13">
      <g>
       <use xlink:href="#me0894b7879" x="57.6" y="150.47282" style="stroke: #000000; stroke-width: 0.8"/>
      </g>
     </g>
     <g id="text_14">
      <!-- 800 -->
      <g transform="translate(31.5125 154.272039) scale(0.1 -0.1)">
       <defs>
        <path id="DejaVuSans-38" d="M 2034 2216 
Q 1584 2216 1326 1975 
Q 1069 1734 1069 1313 
Q 1069 891 1326 650 
Q 1584 409 2034 409 
Q 2484 409 2743 651 
Q 3003 894 3003 1313 
Q 3003 1734 2745 1975 
Q 2488 2216 2034 2216 
z
M 1403 2484 
Q 997 2584 770 2862 
Q 544 3141 544 3541 
Q 544 4100 942 4425 
Q 1341 4750 2034 4750 
Q 2731 4750 3128 4425 
Q 3525 4100 3525 3541 
Q 3525 3141 3298 2862 
Q 3072 2584 2669 2484 
Q 3125 2378 3379 2068 
Q 3634 1759 3634 1313 
Q 3634 634 3220 271 
Q 2806 -91 2034 -91 
Q 1263 -91 848 271 
Q 434 634 434 1313 
Q 434 1759 690 2068 
Q 947 2378 1403 2484 
z
M 1172 3481 
Q 1172 3119 1398 2916 
Q 1625 2713 2034 2713 
Q 2441 2713 2670 2916 
Q 2900 3119 2900 3481 
Q 2900 3844 2670 4047 
Q 2441 4250 2034 4250 
Q 1625 4250 1398 4047 
Q 1172 3844 1172 3481 
z
" transform="scale(0.015625)"/>
       </defs>
       <use xlink:href="#DejaVuSans-38"/>
       <use xlink:href="#DejaVuSans-30" x="63.623047"/>
       <use xlink:href="#DejaVuSans-30" x="127.246094"/>
      </g>
     </g>
    </g>
    <g id="ytick_6">
     <g id="line2d_14">
      <g>
       <use xlink:href="#me0894b7879" x="57.6" y="114.219025" style="stroke: #000000; stroke-width: 0.8"/>
      </g>
     </g>
     <g id="text_15">
      <!-- 1000 -->
      <g transform="translate(25.15 118.018243) scale(0.1 -0.1)">
       <use xlink:href="#DejaVuSans-31"/>
       <use xlink:href="#DejaVuSans-30" x="63.623047"/>
       <use xlink:href="#DejaVuSans-30" x="127.246094"/>
       <use xlink:href="#DejaVuSans-30" x="190.869141"/>
      </g>
     </g>
    </g>
    <g id="ytick_7">
     <g id="line2d_15">
      <g>
       <use xlink:href="#me0894b7879" x="57.6" y="77.965229" style="stroke: #000000; stroke-width: 0.8"/>
      </g>
     </g>
     <g id="text_16">
      <!-- 1200 -->
      <g transform="translate(25.15 81.764448) scale(0.1 -0.1)">
       <use xlink:href="#DejaVuSans-31"/>
       <use xlink:href="#DejaVuSans-32" x="63.623047"/>
       <use xlink:href="#DejaVuSans-30" x="127.246094"/>
       <use xlink:href="#DejaVuSans-30" x="190.869141"/>
      </g>
     </g>
    </g>
    <g id="ytick_8">
     <g id="line2d_16">
      <g>
       <use xlink:href="#me0894b7879" x="57.6" y="41.711433" style="stroke: #000000; stroke-width: 0.8"/>
      </g>
     </g>
     <g id="text_17">
      <!-- 1400 -->
      <g transform="translate(25.15 45.510652) scale(0.1 -0.1)">
       <use xlink:href="#DejaVuSans-31"/>
       <use xlink:href="#DejaVuSans-34" x="63.623047"/>
       <use xlink:href="#DejaVuSans-30" x="127.246094"/>
       <use xlink:href="#DejaVuSans-30" x="190.869141"/>
      </g>
     </g>
    </g>
    <g id="text_18">
     <!-- loss -->
     <g transform="translate(19.070312 184.185812) rotate(-90) scale(0.1 -0.1)">
      <defs>
       <path id="DejaVuSans-6c" d="M 603 4863 
L 1178 4863 
L 1178 0 
L 603 0 
L 603 4863 
z
" transform="scale(0.015625)"/>
       <path id="DejaVuSans-6f" d="M 1959 3097 
Q 1497 3097 1228 2736 
Q 959 2375 959 1747 
Q 959 1119 1226 758 
Q 1494 397 1959 397 
Q 2419 397 2687 759 
Q 2956 1122 2956 1747 
Q 2956 2369 2687 2733 
Q 2419 3097 1959 3097 
z
M 1959 3584 
Q 2709 3584 3137 3096 
Q 3566 2609 3566 1747 
Q 3566 888 3137 398 
Q 2709 -91 1959 -91 
Q 1206 -91 779 398 
Q 353 888 353 1747 
Q 353 2609 779 3096 
Q 1206 3584 1959 3584 
z
" transform="scale(0.015625)"/>
      </defs>
      <use xlink:href="#DejaVuSans-6c"/>
      <use xlink:href="#DejaVuSans-6f" x="27.783203"/>
      <use xlink:href="#DejaVuSans-73" x="88.964844"/>
      <use xlink:href="#DejaVuSans-73" x="141.064453"/>
     </g>
    </g>
   </g>
   <g id="line2d_17">
    <path d="M 73.832727 295.4873 
L 73.880478 295.288985 
L 73.928228 295.457948 
L 74.26248 295.487137 
L 74.787734 295.487974 
L 74.835484 295.091756 
L 74.883235 295.487921 
L 76.172494 295.487943 
L 76.220244 295.282988 
L 76.267994 295.487822 
L 76.411246 295.487259 
L 76.458996 287.471127 
L 76.506746 295.454774 
L 76.745498 295.48792 
L 76.793248 295.487878 
L 76.840999 292.75953 
L 76.888749 295.444419 
L 76.936499 295.487946 
L 76.98425 295.114708 
L 77.032 295.339674 
L 77.175251 295.466016 
L 77.223001 295.4355 
L 77.270752 295.119372 
L 77.318502 295.485876 
L 77.366252 295.485495 
L 77.414003 295.127549 
L 77.461753 295.48495 
L 77.509503 295.484806 
L 77.557254 287.163631 
L 77.605004 295.483972 
L 77.700505 295.482752 
L 77.748255 295.1899 
L 77.796005 295.472337 
L 77.939256 295.479387 
L 77.987007 295.188634 
L 78.034757 295.374233 
L 78.130258 295.474705 
L 78.178008 294.913645 
L 78.225758 295.486792 
L 78.273509 295.487917 
L 78.41676 294.471386 
L 78.51226 295.486785 
L 78.607761 295.075119 
L 78.751012 295.487643 
L 78.989764 295.477864 
L 79.037514 294.931196 
L 79.085264 295.218115 
L 79.180765 295.484178 
L 79.324016 295.039558 
L 79.467267 295.475911 
L 79.562768 295.481349 
L 79.610518 295.288188 
L 79.658268 295.486906 
L 79.94477 295.408773 
L 79.992521 295.127158 
L 80.040271 295.187588 
L 80.183522 295.486295 
L 80.231273 295.487519 
L 80.279023 295.233136 
L 80.326773 295.415344 
L 80.422274 295.481315 
L 80.470024 295.164187 
L 80.517775 295.230476 
L 80.661026 295.478919 
L 80.804277 295.445671 
L 80.852027 295.487523 
L 80.899777 295.204886 
L 80.947528 295.435502 
L 80.995278 295.48701 
L 81.043028 295.422653 
L 81.138529 295.468267 
L 81.186279 295.213352 
L 81.377281 295.47163 
L 81.520532 295.218531 
L 81.568282 295.484466 
L 81.663783 295.411099 
L 81.759283 295.487975 
L 81.807034 294.800197 
L 81.854784 295.485271 
L 82.189036 295.447161 
L 82.236787 282.311467 
L 82.284537 295.475749 
L 82.380038 295.386232 
L 82.475538 295.173424 
L 82.523289 295.437969 
L 82.571039 295.044265 
L 82.618789 295.428396 
L 82.71429 295.313699 
L 82.76204 294.92005 
L 82.809791 295.377757 
L 82.857541 295.249585 
L 82.905291 295.315074 
L 82.953042 295.48403 
L 83.000792 295.381313 
L 83.048542 294.339661 
L 83.096293 295.362934 
L 83.191793 294.421068 
L 83.335044 295.484885 
L 83.478295 295.40256 
L 83.526046 295.436938 
L 83.573796 294.162488 
L 83.621546 295.429558 
L 84.672054 295.469871 
L 84.719804 53.568 
L 84.767555 295.453501 
L 85.101807 295.481221 
L 85.149557 277.488948 
L 85.197308 295.481999 
L 85.53156 295.461922 
L 85.57931 294.867999 
L 85.627061 295.487171 
L 86.391066 295.281002 
L 86.438816 294.458165 
L 86.486567 295.461635 
L 86.725318 295.487914 
L 86.773069 295.375897 
L 86.820819 295.471645 
L 87.202822 295.484473 
L 87.250572 295.175279 
L 87.298322 295.438568 
L 87.632575 295.48783 
L 90.020092 295.487946 
L 90.067842 295.10411 
L 90.115592 295.460559 
L 90.545345 295.47572 
L 90.593096 294.845129 
L 90.640846 295.468214 
L 90.927348 295.485941 
L 91.070599 295.461094 
L 91.452602 295.479047 
L 91.595853 294.958619 
L 91.739104 295.478848 
L 91.930105 295.487907 
L 92.980613 295.462241 
L 93.028363 293.79073 
L 93.076113 295.465358 
L 93.840119 295.48193 
L 94.126621 295.467798 
L 94.222121 295.469928 
L 94.269872 295.326802 
L 94.317622 295.485222 
L 94.460873 295.481072 
L 95.797883 295.482635 
L 97.278143 295.477291 
L 97.325893 295.374705 
L 97.373644 295.468508 
L 97.660146 295.48792 
L 97.803397 295.47508 
L 100.286414 295.451631 
L 100.334165 295.214836 
L 100.381915 295.470116 
L 100.668417 295.480916 
L 100.716167 295.253328 
L 100.763918 295.480928 
L 102.005426 295.45201 
L 102.291928 295.482375 
L 105.3002 295.45713 
L 105.634452 295.461581 
L 105.825453 295.48575 
L 105.968704 295.466474 
L 106.398458 295.454157 
L 106.589459 295.466779 
L 106.78046 295.435031 
L 107.019212 295.464141 
L 107.066962 295.39061 
L 107.114713 295.463539 
L 107.926468 295.446184 
L 107.974219 295.346748 
L 108.021969 295.379583 
L 108.16522 295.452088 
L 114.325014 295.476329 
L 114.468265 295.443287 
L 114.754767 295.483556 
L 114.898018 295.461891 
L 115.327771 295.446115 
L 115.709773 295.464732 
L 115.948525 295.465314 
L 116.235027 295.474679 
L 116.378278 295.455237 
L 116.71253 295.451753 
L 117.046783 295.453224 
L 117.381035 295.471942 
L 118.765795 295.446796 
L 118.956796 295.449924 
L 119.243298 295.450643 
L 119.48205 295.448499 
L 121.726316 295.463362 
L 122.25157 295.467294 
L 122.633572 295.432265 
L 122.920074 295.455674 
L 122.967825 295.39776 
L 123.015575 295.448801 
L 123.397578 295.466328 
L 123.540829 295.362811 
L 123.68408 295.459862 
L 128.841116 295.434515 
L 128.984367 295.436778 
L 129.31862 295.458257 
L 129.652872 295.446452 
L 129.891624 295.463152 
L 130.178126 295.454605 
L 131.276383 295.467153 
L 131.467385 295.419405 
L 131.562885 295.458654 
L 131.706136 295.458748 
L 131.992638 295.432158 
L 132.565643 295.44272 
L 132.852145 295.464425 
L 133.090896 295.411134 
L 133.5684 295.466743 
L 134.475656 295.413035 
L 134.666657 295.461372 
L 135.717165 295.467463 
L 139.441691 295.448739 
L 139.584942 295.46408 
L 140.778701 295.433051 
L 140.969702 295.458453 
L 141.160703 295.432284 
L 141.208454 295.346815 
L 141.256204 295.377869 
L 141.399455 295.471633 
L 141.781458 295.465423 
L 160.690591 295.426343 
L 160.738342 295.339878 
L 160.786092 295.458021 
L 161.024844 295.425994 
L 161.263595 295.440359 
L 161.406846 295.433186 
L 162.075351 295.459963 
L 162.314103 295.44312 
L 162.791606 295.432296 
L 163.125859 295.414929 
L 163.36461 295.463956 
L 163.555612 295.401484 
L 163.698863 295.439832 
L 163.889864 295.442309 
L 164.176366 295.445056 
L 164.558369 295.419121 
L 164.79712 295.428065 
L 165.083622 295.414489 
L 165.226873 295.421962 
L 165.274624 295.371186 
L 165.322374 295.435462 
L 165.799878 295.464073 
L 165.895378 295.418699 
L 166.038629 295.443739 
L 166.08638 295.372909 
L 166.13413 295.417268 
L 166.325131 295.440055 
L 166.468382 295.394159 
L 166.754884 295.435874 
L 167.136887 295.421901 
L 167.327888 295.447022 
L 168.044143 295.410719 
L 168.330645 295.450926 
L 168.569397 295.38357 
L 168.760398 295.451484 
L 171.577668 295.461951 
L 171.625419 295.349826 
L 171.720919 295.403905 
L 171.911921 295.439069 
L 172.055172 295.3984 
L 172.341674 295.442182 
L 173.296681 295.402079 
L 173.439932 295.445628 
L 173.678683 295.422714 
L 173.869685 295.435943 
L 174.108436 295.414111 
L 174.394938 295.462211 
L 174.68144 295.386033 
L 174.872442 295.427947 
L 175.063443 295.427273 
L 176.161701 295.439198 
L 176.257201 295.372361 
L 176.304952 295.443593 
L 176.591454 295.424497 
L 177.259959 295.411053 
L 177.49871 295.424331 
L 177.976214 295.450818 
L 178.119465 295.385149 
L 178.358216 295.416468 
L 178.83572 295.448806 
L 179.169972 295.400445 
L 179.456474 295.451481 
L 179.695226 295.417142 
L 180.077228 295.458884 
L 180.220479 295.432726 
L 180.697983 295.410189 
L 180.888984 295.421213 
L 181.366488 295.42062 
L 181.605239 295.433955 
L 181.891741 295.451549 
L 182.130493 295.407964 
L 182.321494 295.44783 
L 182.464745 295.430838 
L 183.467502 295.404918 
L 183.658504 295.427615 
L 183.945006 295.425314 
L 184.136007 295.46162 
L 184.279258 295.406937 
L 184.422509 295.395106 
L 184.852262 295.431953 
L 185.043264 295.394108 
L 185.329766 295.449827 
L 185.473017 295.423523 
L 206.721917 295.43286 
L 206.865168 295.410662 
L 207.10392 295.399492 
L 207.533673 295.379432 
L 207.820175 295.418086 
L 208.011176 295.388966 
L 208.249928 295.436221 
L 208.488679 295.417842 
L 211.3537 295.422074 
L 211.544701 295.412683 
L 211.687952 295.395563 
L 212.356457 295.42022 
L 212.595208 295.353625 
L 212.738459 295.378544 
L 212.929461 295.407419 
L 213.215963 295.403136 
L 214.17097 295.394212 
L 214.505222 295.41984 
L 214.934975 295.385577 
L 215.078226 295.45052 
L 215.221477 295.419552 
L 216.988239 295.377285 
L 217.08374 295.432941 
L 217.226991 295.394971 
L 218.086497 295.414346 
L 218.277499 295.434377 
L 218.325249 295.337324 
L 218.372999 295.378966 
L 218.564001 295.44077 
L 218.707252 295.388048 
L 218.898253 295.424143 
L 219.041504 295.404995 
L 219.184755 295.43707 
L 219.328006 295.413494 
L 221.667773 295.387234 
L 221.858774 295.351385 
L 222.049775 295.435999 
L 222.193026 295.423267 
L 222.909281 295.40952 
L 223.004782 295.393116 
L 223.052532 295.322905 
L 223.100283 295.418927 
L 223.195783 295.361008 
L 223.482285 295.375185 
L 223.673287 295.415033 
L 223.816538 295.405323 
L 224.294041 295.395534 
L 224.437292 295.411273 
L 224.580543 295.388632 
L 225.822052 295.399078 
L 225.965303 295.397697 
L 226.299555 295.418109 
L 226.729308 295.376557 
L 226.92031 295.328087 
L 227.111311 295.445906 
L 227.350063 295.373558 
L 227.445563 295.408734 
L 227.588814 295.390898 
L 228.114068 295.368457 
L 228.305069 295.406264 
L 228.639322 295.37443 
L 228.782573 295.395699 
L 228.830323 295.345886 
L 228.878074 295.396258 
L 229.212326 295.404776 
L 229.78533 295.415063 
L 229.928581 295.381763 
L 230.883588 295.380255 
L 231.361091 295.391421 
L 231.743094 295.387124 
L 232.6026 295.407211 
L 232.841352 295.42649 
L 233.032353 295.404221 
L 234.321612 295.406546 
L 234.560364 295.424304 
L 234.703615 295.393105 
L 234.894616 295.410573 
L 235.46762 295.422595 
L 235.658621 295.374976 
L 236.136125 295.391093 
L 236.661379 295.382586 
L 237.043381 295.386176 
L 237.091132 295.331605 
L 237.138882 295.393703 
L 237.855137 295.399045 
L 238.046138 295.364066 
L 238.189389 295.409832 
L 238.28489 295.392512 
L 238.428141 295.376725 
L 238.619142 295.376679 
L 238.810144 295.408001 
L 242.248168 295.372266 
L 242.48692 295.387494 
L 243.012173 295.408438 
L 243.203175 295.394078 
L 243.537427 295.387187 
L 243.680678 295.367403 
L 243.87168 295.314468 
L 244.014931 295.390701 
L 244.158182 295.369111 
L 248.598963 295.38593 
L 248.646713 295.317715 
L 248.694464 295.406759 
L 248.933215 295.40264 
L 249.171967 295.390749 
L 249.362968 295.366865 
L 249.55397 295.345031 
L 249.697221 295.383522 
L 249.935972 295.395993 
L 250.079223 295.36722 
L 250.413476 295.394852 
L 251.272982 295.332469 
L 251.416233 295.37003 
L 267.9856 295.361936 
L 268.03335 295.283591 
L 268.081101 295.386817 
L 268.845106 295.340764 
L 268.988357 295.389801 
L 269.37036 295.334512 
L 269.46586 295.373926 
L 269.656862 295.3613 
L 269.847863 295.36755 
L 269.991114 295.362714 
L 270.80287 295.37278 
L 271.089372 295.392133 
L 271.375874 295.374475 
L 273.66789 295.373289 
L 273.811141 295.397583 
L 274.049893 295.356235 
L 274.193144 295.369681 
L 277.774419 295.365074 
L 278.060921 295.404691 
L 278.347423 295.383759 
L 278.538425 295.384852 
L 278.586175 295.315409 
L 278.633925 295.368384 
L 279.015928 295.379438 
L 279.25468 295.353216 
L 279.541182 295.341604 
L 279.732183 295.36374 
L 288.852498 295.355332 
L 288.995749 295.371353 
L 289.330001 295.367454 
L 289.616503 295.366874 
L 291.574267 295.33199 
L 291.717518 295.375864 
L 292.147271 295.395449 
L 292.338272 295.350615 
L 292.481523 295.372964 
L 292.863526 295.35916 
L 293.054527 295.381607 
L 293.48428 295.376205 
L 293.675282 295.368847 
L 293.723032 294.03292 
L 293.770782 295.355868 
L 294.487037 295.364858 
L 294.630288 295.361865 
L 296.444801 295.387268 
L 296.492552 295.328436 
L 296.540302 295.37879 
L 296.826804 295.374026 
L 297.017805 295.32144 
L 299.835075 295.354937 
L 300.312579 295.32561 
L 300.360329 295.413134 
L 300.408079 295.369348 
L 300.646831 295.331855 
L 300.790082 295.389176 
L 301.315336 295.372505 
L 301.697338 295.382871 
L 301.88834 295.33334 
L 302.079341 295.388793 
L 302.222592 295.364618 
L 312.775417 295.376478 
L 313.014168 295.363014 
L 313.20517 295.314827 
L 313.396171 295.372281 
L 313.969175 295.343051 
L 314.207927 295.356191 
L 314.398928 295.349873 
L 314.63768 295.375689 
L 314.828681 295.331919 
L 314.971932 295.360417 
L 315.115183 295.337731 
L 315.353935 295.341936 
L 316.165691 295.352733 
L 316.356692 295.287614 
L 316.499943 295.364358 
L 316.738695 295.348861 
L 317.311699 295.364416 
L 317.45495 295.361425 
L 317.55045 295.302048 
L 317.598201 295.359354 
L 317.789202 295.386058 
L 317.932453 295.347225 
L 318.218955 295.346538 
L 318.362206 295.336752 
L 318.648708 295.361727 
L 319.173962 295.353536 
L 319.794716 295.359487 
L 320.224469 295.363986 
L 320.415471 295.366783 
L 320.606472 295.321684 
L 320.892974 295.354944 
L 321.083975 295.33369 
L 321.227226 295.3174 
L 322.086733 295.362319 
L 322.229984 295.368667 
L 322.420985 295.337984 
L 322.564236 295.37214 
L 322.850738 295.329133 
L 323.280491 295.380086 
L 323.423742 295.380624 
L 324.904002 295.34798 
L 324.999503 295.354913 
L 325.190504 295.372147 
L 325.477007 295.377859 
L 325.668008 295.347682 
L 326.050011 295.356625 
L 326.336513 295.390431 
L 326.623015 295.359073 
L 327.100518 295.376483 
L 327.291519 295.368907 
L 327.816773 295.34631 
L 328.055525 295.344323 
L 328.246526 295.367226 
L 330.347541 295.337672 
L 330.538542 295.39445 
L 330.777294 295.343985 
L 331.016046 295.354116 
L 331.398048 295.345408 
L 331.58905 295.374045 
L 333.212561 295.370379 
L 333.403563 295.347023 
L 333.594564 295.365275 
L 334.645071 295.367891 
L 334.931573 295.344708 
L 335.122575 295.359467 
L 335.361326 295.346212 
L 335.647828 295.348411 
L 336.077581 295.343433 
L 336.555085 295.372335 
L 336.650586 295.354657 
L 336.889337 295.367019 
L 338.6561 295.312807 
L 338.799351 295.374399 
L 339.181353 295.300906 
L 339.467855 295.378724 
L 339.897608 295.334378 
L 340.08861 295.346709 
L 340.422862 295.366305 
L 340.613864 295.356144 
L 340.757115 295.387531 
L 340.995866 295.332115 
L 341.234618 295.388706 
L 341.377869 295.344202 
L 342.571627 295.400709 
L 342.714878 295.337058 
L 343.192382 295.399483 
L 343.335633 295.374183 
L 343.765386 295.382638 
L 343.908637 295.30598 
L 344.242889 295.356994 
L 346.343904 295.353615 
L 346.534905 295.400359 
L 347.967416 295.365799 
L 348.110667 295.343971 
L 348.54042 295.389325 
L 349.304425 295.352999 
L 349.447676 295.318122 
L 349.638677 295.388982 
L 349.829679 295.342096 
L 350.450433 295.362652 
L 350.689185 295.339502 
L 351.835193 295.366268 
L 351.882943 295.30408 
L 351.930694 295.365664 
L 352.264946 295.375876 
L 352.551448 295.362252 
L 352.694699 295.355368 
L 352.7902 295.378945 
L 352.83795 295.309378 
L 352.8857 295.343991 
L 352.933451 295.407614 
L 352.981201 295.331423 
L 354.556962 295.385743 
L 354.700213 295.347923 
L 355.177717 295.374076 
L 355.416468 295.369513 
L 356.037223 295.353223 
L 356.419225 295.362499 
L 356.610227 295.350325 
L 360.048251 295.358328 
L 360.334753 295.365693 
L 360.478004 295.371045 
L 361.098758 295.39023 
L 361.242009 295.329596 
L 361.433011 295.384808 
L 361.624012 295.364578 
L 361.862764 295.349592 
L 366.255795 295.325493 
L 366.399046 295.35827 
L 367.640555 295.362332 
L 367.927057 295.35788 
L 368.165808 295.333689 
L 368.40456 295.396497 
L 368.547811 295.361787 
L 368.738812 295.35426 
L 369.168565 295.369498 
L 369.311816 295.383645 
L 369.550568 295.352518 
L 369.598318 295.414265 
L 369.646069 295.318339 
L 369.88482 295.34938 
L 370.123572 295.366372 
L 370.362324 295.322614 
L 371.699333 295.374535 
L 372.081336 295.396138 
L 372.224587 295.350732 
L 372.60659 295.338927 
L 373.895849 295.370994 
L 374.277852 295.415622 
L 374.468853 295.338416 
L 374.612104 295.349524 
L 374.755355 295.356894 
L 381.679154 295.344928 
L 381.917906 295.345324 
L 382.156657 295.348879 
L 382.252158 295.384362 
L 382.443159 295.362754 
L 382.58641 295.352515 
L 383.254915 295.391959 
L 383.398166 295.341189 
L 383.589167 295.382346 
L 383.780169 295.350146 
L 384.01892 295.387663 
L 384.305422 295.360876 
L 384.448673 295.332491 
L 384.591924 295.366652 
L 384.926177 295.34706 
L 398.487273 295.374677 
L 398.487273 295.374677 
" clip-path="url(#p4afe526c95)" style="fill: none; stroke: #1f77b4; stroke-width: 1.5; stroke-linecap: square"/>
   </g>
   <g id="patch_3">
    <path d="M 57.6 307.584 
L 57.6 41.472 
" style="fill: none; stroke: #000000; stroke-width: 0.8; stroke-linejoin: miter; stroke-linecap: square"/>
   </g>
   <g id="patch_4">
    <path d="M 414.72 307.584 
L 414.72 41.472 
" style="fill: none; stroke: #000000; stroke-width: 0.8; stroke-linejoin: miter; stroke-linecap: square"/>
   </g>
   <g id="patch_5">
    <path d="M 57.6 307.584 
L 414.72 307.584 
" style="fill: none; stroke: #000000; stroke-width: 0.8; stroke-linejoin: miter; stroke-linecap: square"/>
   </g>
   <g id="patch_6">
    <path d="M 57.6 41.472 
L 414.72 41.472 
" style="fill: none; stroke: #000000; stroke-width: 0.8; stroke-linejoin: miter; stroke-linecap: square"/>
   </g>
  </g>
 </g>
 <defs>
  <clipPath id="p4afe526c95">
   <rect x="57.6" y="41.472" width="357.12" height="266.112"/>
  </clipPath>
 </defs>
</svg>
